<?xml version="1.0"?>



<svg width="726pt" height="174pt" viewBox="0.00 0.00 726.00 174.00" xmlns="http://www.w3.org/2000/svg" xmlns:xlink="http://www.w3.org/1999/xlink">
<g id="graph0" class="graph" transform="scale(1 1) rotate(0) translate(4 169.5)">
<polygon fill="white" stroke="none" points="-4,4 -4,-169.5 722.25,-169.5 722.25,4 -4,4"></polygon>

<g id="node1" class="node">
<title>attachments</title>
<polygon fill="none" stroke="black" points="553.25,-119.88 553.25,-148.62 710.25,-148.62 710.25,-119.88 553.25,-119.88"></polygon>
<text xml:space="preserve" text-anchor="start" x="584.5" y="-129.43" font-family="Helvetica,sans-Serif" font-weight="bold" font-size="16.00">attachments</text>
<polygon fill="none" stroke="black" points="553.25,-94.12 553.25,-119.88 710.25,-119.88 710.25,-94.12 553.25,-94.12"></polygon>
<text xml:space="preserve" text-anchor="start" x="558.25" y="-102.58" font-family="Helvetica,sans-Serif" text-decoration="underline" font-size="14.00">id</text>
<text xml:space="preserve" text-anchor="start" x="568.75" y="-102.58" font-family="Helvetica,sans-Serif" font-size="14.00"> </text>
<text xml:space="preserve" text-anchor="start" x="572.5" y="-102.58" font-family="Helvetica,sans-Serif" font-size="14.00"> [INTEGER]</text>
<polygon fill="none" stroke="black" points="553.25,-68.38 553.25,-94.12 710.25,-94.12 710.25,-68.38 553.25,-68.38"></polygon>
<text xml:space="preserve" text-anchor="start" x="558.25" y="-76.83" font-family="Helvetica,sans-Serif" font-size="14.00">reading_id</text>
<text xml:space="preserve" text-anchor="start" x="621.25" y="-76.83" font-family="Helvetica,sans-Serif" font-size="14.00"> </text>
<text xml:space="preserve" text-anchor="start" x="625" y="-76.83" font-family="Helvetica,sans-Serif" font-size="14.00"> [INTEGER]</text>
<polygon fill="none" stroke="black" points="553.25,-42.62 553.25,-68.38 710.25,-68.38 710.25,-42.62 553.25,-42.62"></polygon>
<text xml:space="preserve" text-anchor="start" x="558.25" y="-51.08" font-family="Helvetica,sans-Serif" font-size="14.00">kind</text>
<text xml:space="preserve" text-anchor="start" x="583" y="-51.08" font-family="Helvetica,sans-Serif" font-size="14.00"> </text>
<text xml:space="preserve" text-anchor="start" x="586.75" y="-51.08" font-family="Helvetica,sans-Serif" font-size="14.00"> [TEXT]</text>
<polygon fill="none" stroke="black" points="553.25,-16.88 553.25,-42.62 710.25,-42.62 710.25,-16.88 553.25,-16.88"></polygon>
<text xml:space="preserve" text-anchor="start" x="558.25" y="-25.32" font-family="Helvetica,sans-Serif" font-size="14.00">path</text>
<text xml:space="preserve" text-anchor="start" x="584.5" y="-25.32" font-family="Helvetica,sans-Serif" font-size="14.00"> </text>
<text xml:space="preserve" text-anchor="start" x="588.25" y="-25.32" font-family="Helvetica,sans-Serif" font-size="14.00"> [TEXT]</text>
<text xml:space="preserve" text-anchor="start" x="634" y="-25.32" font-family="Helvetica,sans-Serif" font-size="14.00"> NOT NULL</text>
</g>

<g id="node2" class="node">
<title>readings</title>
<polygon fill="none" stroke="black" points="262.25,-119.88 262.25,-148.62 464.25,-148.62 464.25,-119.88 262.25,-119.88"></polygon>
<text xml:space="preserve" text-anchor="start" x="329.88" y="-129.43" font-family="Helvetica,sans-Serif" font-weight="bold" font-size="16.00">readings</text>
<polygon fill="none" stroke="black" points="262.25,-94.12 262.25,-119.88 464.25,-119.88 464.25,-94.12 262.25,-94.12"></polygon>
<text xml:space="preserve" text-anchor="start" x="267.25" y="-102.58" font-family="Helvetica,sans-Serif" font-size="14.00">captured_at</text>
<text xml:space="preserve" text-anchor="start" x="338.5" y="-102.58" font-family="Helvetica,sans-Serif" font-size="14.00"> </text>
<text xml:space="preserve" text-anchor="start" x="342.25" y="-102.58" font-family="Helvetica,sans-Serif" font-size="14.00"> [TEXT]</text>
<text xml:space="preserve" text-anchor="start" x="388" y="-102.58" font-family="Helvetica,sans-Serif" font-size="14.00"> NOT NULL</text>
<polygon fill="none" stroke="black" points="262.25,-68.38 262.25,-94.12 464.25,-94.12 464.25,-68.38 262.25,-68.38"></polygon>
<text xml:space="preserve" text-anchor="start" x="267.25" y="-76.83" font-family="Helvetica,sans-Serif" text-decoration="underline" font-size="14.00">id</text>
<text xml:space="preserve" text-anchor="start" x="277.75" y="-76.83" font-family="Helvetica,sans-Serif" font-size="14.00"> </text>
<text xml:space="preserve" text-anchor="start" x="281.5" y="-76.83" font-family="Helvetica,sans-Serif" font-size="14.00"> [INTEGER]</text>
<polygon fill="none" stroke="black" points="262.25,-42.62 262.25,-68.38 464.25,-68.38 464.25,-42.62 262.25,-42.62"></polygon>
<text xml:space="preserve" text-anchor="start" x="267.25" y="-51.08" font-family="Helvetica,sans-Serif" font-size="14.00">site_id</text>
<text xml:space="preserve" text-anchor="start" x="306.25" y="-51.08" font-family="Helvetica,sans-Serif" font-size="14.00"> </text>
<text xml:space="preserve" text-anchor="start" x="310" y="-51.08" font-family="Helvetica,sans-Serif" font-size="14.00"> [INTEGER]</text>
<polygon fill="none" stroke="black" points="262.25,-16.88 262.25,-42.62 464.25,-42.62 464.25,-16.88 262.25,-16.88"></polygon>
<text xml:space="preserve" text-anchor="start" x="267.25" y="-25.32" font-family="Helvetica,sans-Serif" font-size="14.00">note</text>
<text xml:space="preserve" text-anchor="start" x="293.5" y="-25.32" font-family="Helvetica,sans-Serif" font-size="14.00"> </text>
<text xml:space="preserve" text-anchor="start" x="297.25" y="-25.32" font-family="Helvetica,sans-Serif" font-size="14.00"> [TEXT]</text>
</g>

<g id="edge1" class="edge">
<title>readings--attachments</title>
<path fill="none" stroke="#7f7f7f" stroke-dasharray="5,2" d="M471.88,-82.75C496.44,-82.75 522.2,-82.75 545.66,-82.75"></path>
<text xml:space="preserve" text-anchor="start" x="521.66" y="-70" font-family="Times New Roman,serif" font-size="14.00">0..N</text>
<text xml:space="preserve" text-anchor="start" x="471.88" y="-70" font-family="Times New Roman,serif" font-size="14.00">{0,1}</text>
</g>

<g id="node3" class="node">
<title>sites</title>
<polygon fill="none" stroke="black" points="8,-132.75 8,-161.5 173.25,-161.5 173.25,-132.75 8,-132.75"></polygon>
<text xml:space="preserve" text-anchor="start" x="72.25" y="-142.3" font-family="Helvetica,sans-Serif" font-weight="bold" font-size="16.00">sites</text>
<polygon fill="none" stroke="black" points="8,-107 8,-132.75 173.25,-132.75 173.25,-107 8,-107"></polygon>
<text xml:space="preserve" text-anchor="start" x="13" y="-115.45" font-family="Helvetica,sans-Serif" font-size="14.00">lat</text>
<text xml:space="preserve" text-anchor="start" x="27.25" y="-115.45" font-family="Helvetica,sans-Serif" font-size="14.00"> </text>
<text xml:space="preserve" text-anchor="start" x="31" y="-115.45" font-family="Helvetica,sans-Serif" font-size="14.00"> [REAL]</text>
<polygon fill="none" stroke="black" points="8,-81.25 8,-107 173.25,-107 173.25,-81.25 8,-81.25"></polygon>
<text xml:space="preserve" text-anchor="start" x="13" y="-89.7" font-family="Helvetica,sans-Serif" font-size="14.00">region_code</text>
<text xml:space="preserve" text-anchor="start" x="87.25" y="-89.7" font-family="Helvetica,sans-Serif" font-size="14.00"> </text>
<text xml:space="preserve" text-anchor="start" x="91" y="-89.7" font-family="Helvetica,sans-Serif" font-size="14.00"> [TEXT]</text>
<polygon fill="none" stroke="black" points="8,-55.5 8,-81.25 173.25,-81.25 173.25,-55.5 8,-55.5"></polygon>
<text xml:space="preserve" text-anchor="start" x="13" y="-63.95" font-family="Helvetica,sans-Serif" font-size="14.00">lng</text>
<text xml:space="preserve" text-anchor="start" x="31" y="-63.95" font-family="Helvetica,sans-Serif" font-size="14.00"> </text>
<text xml:space="preserve" text-anchor="start" x="34.75" y="-63.95" font-family="Helvetica,sans-Serif" font-size="14.00"> [REAL]</text>
<polygon fill="none" stroke="black" points="8,-29.75 8,-55.5 173.25,-55.5 173.25,-29.75 8,-29.75"></polygon>
<text xml:space="preserve" text-anchor="start" x="13" y="-38.2" font-family="Helvetica,sans-Serif" text-decoration="underline" font-size="14.00">id</text>
<text xml:space="preserve" text-anchor="start" x="23.5" y="-38.2" font-family="Helvetica,sans-Serif" font-size="14.00"> </text>
<text xml:space="preserve" text-anchor="start" x="27.25" y="-38.2" font-family="Helvetica,sans-Serif" font-size="14.00"> [INTEGER]</text>
<polygon fill="none" stroke="black" points="8,-4 8,-29.75 173.25,-29.75 173.25,-4 8,-4"></polygon>
<text xml:space="preserve" text-anchor="start" x="13" y="-12.45" font-family="Helvetica,sans-Serif" font-size="14.00">name</text>
<text xml:space="preserve" text-anchor="start" x="47.5" y="-12.45" font-family="Helvetica,sans-Serif" font-size="14.00"> </text>
<text xml:space="preserve" text-anchor="start" x="51.25" y="-12.45" font-family="Helvetica,sans-Serif" font-size="14.00"> [TEXT]</text>
<text xml:space="preserve" text-anchor="start" x="97" y="-12.45" font-family="Helvetica,sans-Serif" font-size="14.00"> NOT NULL</text>
</g>

<g id="edge2" class="edge">
<title>sites--readings</title>
<path fill="none" stroke="#7f7f7f" stroke-dasharray="5,2" d="M180.99,-82.75C204.54,-82.75 230.21,-82.75 254.62,-82.75"></path>
<text xml:space="preserve" text-anchor="start" x="230.62" y="-70" font-family="Times New Roman,serif" font-size="14.00">0..N</text>
<text xml:space="preserve" text-anchor="start" x="180.99" y="-70" font-family="Times New Roman,serif" font-size="14.00">{0,1}</text>
</g>
</g>
</svg>