<svg xmlns="http://www.w3.org/2000/svg" width="1440" height="2820" viewBox="0 0 1440 2820" font-family="system-ui, -apple-system, sans-serif">
  <!-- ============================================= -->
  <!-- GLOBAL STYLES / DEFS                           -->
  <!-- ============================================= -->
  <defs>
    <!-- Map background pattern (subtle grid to suggest a map) -->
    <pattern id="mapGrid" x="0" y="0" width="40" height="40" patternUnits="userSpaceOnUse">
      <rect width="40" height="40" fill="#e8ecef"/>
      <path d="M 40 0 L 0 0 0 40" fill="none" stroke="#d5dce1" stroke-width="0.5"/>
    </pattern>
    <pattern id="mapGridCity" x="0" y="0" width="60" height="60" patternUnits="userSpaceOnUse">
      <rect width="60" height="60" fill="#eef1f3"/>
      <path d="M 60 0 L 0 0 0 60" fill="none" stroke="#d8dee3" stroke-width="0.5"/>
      <path d="M 30 0 L 30 60 M 0 30 L 60 30" fill="none" stroke="#dde3e7" stroke-width="0.3"/>
    </pattern>
    <!-- Landmass shape to suggest continents -->
    <path id="landmass" d="M 180,280 Q 140,220 200,180 Q 280,140 380,160 Q 480,150 560,200 Q 640,180 720,230 Q 800,220 860,280 Q 900,340 880,420 Q 900,500 840,560 Q 780,620 700,600 Q 620,640 540,610 Q 460,650 380,620 Q 300,640 240,580 Q 180,540 170,460 Q 140,380 180,280 Z"/>
  </defs>

  <!-- ============================================= -->
  <!-- PAGE 1: TRIP OVERVIEW (y: 0 - 900)             -->
  <!-- ============================================= -->
  <g id="page-1-trip-overview">
    <rect x="0" y="0" width="1440" height="900" fill="#ffffff"/>

    <!-- Main map canvas -->
    <rect x="0" y="0" width="1040" height="900" fill="url(#mapGrid)"/>

    <!-- Suggested landmass shapes on map -->
    <g opacity="0.55" fill="#c8b896" stroke="#a89878" stroke-width="1">
      <use href="#landmass" transform="translate(80, 120) scale(1.0)"/>
      <path d="M 760,620 Q 820,600 860,640 Q 880,680 840,720 Q 780,740 740,710 Q 720,670 760,620 Z"/>
    </g>

    <!-- Route line (dashed, following a loop) -->
    <path d="M 320,320 Q 400,280 480,300 Q 560,340 620,380 Q 700,360 760,400 Q 820,440 800,500 Q 760,560 700,580 Q 620,600 560,570 Q 480,590 420,560 Q 360,520 340,460 Q 300,400 320,320 Z"
          fill="none" stroke="#4a90e2" stroke-width="2.5" stroke-dasharray="6 4"/>

    <!-- Waypoint dots along route -->
    <g fill="#4a90e2" stroke="#ffffff" stroke-width="1.5">
      <circle cx="380" cy="290" r="3"/>
      <circle cx="440" cy="295" r="3"/>
      <circle cx="520" cy="320" r="3"/>
      <circle cx="580" cy="360" r="3"/>
      <circle cx="660" cy="380" r="3"/>
      <circle cx="740" cy="420" r="3"/>
      <circle cx="790" cy="480" r="3"/>
      <circle cx="760" cy="540" r="3"/>
      <circle cx="680" cy="580" r="3"/>
      <circle cx="600" cy="585" r="3"/>
      <circle cx="520" cy="570" r="3"/>
      <circle cx="440" cy="545" r="3"/>
      <circle cx="370" cy="490" r="3"/>
      <circle cx="340" cy="420" r="3"/>
      <circle cx="335" cy="355" r="3"/>
    </g>

    <!-- Major city star markers (visited - filled) -->
    <g>
      <!-- Tokyo (visited) -->
      <polygon points="320,320 325,334 340,334 328,343 332,358 320,349 308,358 312,343 300,334 315,334"
               fill="#f5a623" stroke="#d4861a" stroke-width="1"/>
      <text x="320" y="300" text-anchor="middle" font-size="11" font-weight="600" fill="#2d3e50">Tokyo</text>

      <!-- Kyoto (visited) -->
      <polygon points="480,300 484,311 496,311 486,319 490,330 480,322 470,330 474,319 464,311 476,311"
               fill="#f5a623" stroke="#d4861a" stroke-width="1"/>
      <text x="480" y="282" text-anchor="middle" font-size="11" font-weight="600" fill="#2d3e50">Kyoto</text>

      <!-- Seoul (visited) -->
      <polygon points="620,380 624,391 636,391 626,399 630,410 620,402 610,410 614,399 604,391 616,391"
               fill="#f5a623" stroke="#d4861a" stroke-width="1"/>
      <text x="620" y="362" text-anchor="middle" font-size="11" font-weight="600" fill="#2d3e50">Seoul</text>

      <!-- Current location - Bangkok (pulse ring) -->
      <circle cx="760" cy="400" r="14" fill="none" stroke="#e94b3c" stroke-width="1.5" opacity="0.5"/>
      <circle cx="760" cy="400" r="9" fill="#e94b3c" stroke="#ffffff" stroke-width="2"/>
      <text x="760" y="380" text-anchor="middle" font-size="11" font-weight="700" fill="#e94b3c">Bangkok (current)</text>

      <!-- Upcoming cities - outlined stars -->
      <polygon points="800,500 804,511 816,511 806,519 810,530 800,522 790,530 794,519 784,511 796,511"
               fill="#ffffff" stroke="#9aa5b1" stroke-width="1.5"/>
      <text x="800" y="548" text-anchor="middle" font-size="11" font-weight="500" fill="#7a8493">Singapore</text>

      <polygon points="680,580 684,591 696,591 686,599 690,610 680,602 670,610 674,599 664,591 676,591"
               fill="#ffffff" stroke="#9aa5b1" stroke-width="1.5"/>
      <text x="680" y="628" text-anchor="middle" font-size="11" font-weight="500" fill="#7a8493">Bali</text>

      <polygon points="440,545 444,556 456,556 446,564 450,575 440,567 430,575 434,564 424,556 436,556"
               fill="#ffffff" stroke="#9aa5b1" stroke-width="1.5"/>
      <text x="440" y="593" text-anchor="middle" font-size="11" font-weight="500" fill="#7a8493">Mumbai</text>
    </g>

    <!-- Top-left hamburger + trip title -->
    <g>
      <rect x="20" y="20" width="280" height="48" rx="8" fill="#ffffff" stroke="#e0e4e8" stroke-width="1" filter="drop-shadow(0 2px 4px rgba(0,0,0,0.08))"/>
      <g stroke="#4a5568" stroke-width="2" stroke-linecap="round">
        <line x1="36" y1="38" x2="52" y2="38"/>
        <line x1="36" y1="44" x2="52" y2="44"/>
        <line x1="36" y1="50" x2="52" y2="50"/>
      </g>
      <text x="68" y="49" font-size="15" font-weight="600" fill="#1a202c">Asia Adventure 2026</text>
      <g transform="translate(270, 36)" stroke="#4a5568" stroke-width="1.5" fill="none">
        <circle cx="0" cy="0" r="3"/>
        <circle cx="10" cy="-6" r="3"/>
        <circle cx="10" cy="6" r="3"/>
        <line x1="2.5" y1="-1.5" x2="7.5" y2="-4.5"/>
        <line x1="2.5" y1="1.5" x2="7.5" y2="4.5"/>
      </g>
    </g>

    <!-- Zoom controls bottom-right of map -->
    <g>
      <rect x="980" y="780" width="40" height="80" rx="8" fill="#ffffff" stroke="#e0e4e8" filter="drop-shadow(0 2px 4px rgba(0,0,0,0.08))"/>
      <line x1="988" y1="820" x2="1012" y2="820" stroke="#e0e4e8"/>
      <text x="1000" y="808" text-anchor="middle" font-size="18" fill="#4a5568" font-weight="300">+</text>
      <text x="1000" y="848" text-anchor="middle" font-size="22" fill="#4a5568" font-weight="300">-</text>
    </g>

    <!-- Legend bottom-left -->
    <g>
      <rect x="20" y="820" width="160" height="60" rx="6" fill="#ffffff" stroke="#e0e4e8" filter="drop-shadow(0 2px 4px rgba(0,0,0,0.08))"/>
      <text x="32" y="838" font-size="11" font-weight="600" fill="#4a5568">Legend</text>
      <polygon points="36,855 39,861 46,861 40,866 42,872 36,869 30,872 32,866 26,861 33,861"
               fill="#f5a623" stroke="#d4861a" stroke-width="0.8"/>
      <text x="54" y="860" font-size="10" fill="#4a5568">Visited</text>
      <circle cx="36" cy="872" r="4" fill="#e94b3c"/>
      <text x="54" y="875" font-size="10" fill="#4a5568">Current</text>
      <polygon points="116,855 119,861 126,861 120,866 122,872 116,869 110,872 112,866 106,861 113,861"
               fill="#ffffff" stroke="#9aa5b1" stroke-width="1"/>
      <text x="132" y="860" font-size="10" fill="#4a5568">Upcoming</text>
    </g>

    <!-- Scale indicator -->
    <g transform="translate(860, 860)">
      <line x1="0" y1="0" x2="60" y2="0" stroke="#4a5568" stroke-width="2"/>
      <line x1="0" y1="-4" x2="0" y2="4" stroke="#4a5568" stroke-width="2"/>
      <line x1="60" y1="-4" x2="60" y2="4" stroke="#4a5568" stroke-width="2"/>
      <text x="30" y="18" text-anchor="middle" font-size="10" fill="#4a5568">500 km</text>
    </g>

    <!-- RIGHT SIDEBAR (itinerary feed) -->
    <rect x="1040" y="0" width="400" height="900" fill="#fafbfc" stroke="#e0e4e8" stroke-width="1"/>

    <!-- Sidebar header -->
    <g>
      <rect x="1040" y="0" width="400" height="72" fill="#ffffff" stroke="#e0e4e8" stroke-width="1"/>
      <text x="1064" y="28" font-size="11" font-weight="600" fill="#7a8493" letter-spacing="1">TRIP FEED</text>
      <text x="1064" y="52" font-size="15" font-weight="600" fill="#1a202c">Day 18 of 60</text>
      <circle cx="1405" cy="36" r="5" fill="#38a169"/>
      <text x="1395" y="40" text-anchor="end" font-size="11" fill="#38a169" font-weight="500">Live</text>
    </g>

    <!-- Feed entry 1 - Current: Bangkok -->
    <g>
      <circle cx="1062" cy="100" r="5" fill="#e94b3c"/>
      <text x="1076" y="104" font-size="13" font-weight="700" fill="#1a202c">Bangkok, Thailand</text>
      <text x="1420" y="104" text-anchor="end" font-size="11" fill="#7a8493">Nov 3</text>
      <text x="1076" y="122" font-size="11" fill="#e94b3c" font-weight="500">· Current stop</text>
      <text x="1076" y="144" font-size="12" fill="#4a5568">Street food tour through Chinatown.</text>
      <text x="1076" y="160" font-size="12" fill="#4a5568">The mango sticky rice was unreal.</text>
      <g>
        <rect x="1076" y="174" width="70" height="52" rx="4" fill="#d0d7de"/>
        <rect x="1152" y="174" width="70" height="52" rx="4" fill="#d0d7de"/>
        <rect x="1228" y="174" width="70" height="52" rx="4" fill="#d0d7de"/>
        <rect x="1304" y="174" width="70" height="52" rx="4" fill="#7a8493" opacity="0.8"/>
        <text x="1339" y="204" text-anchor="middle" font-size="13" font-weight="600" fill="#ffffff">+5</text>
      </g>
      <g>
        <rect x="1076" y="240" width="130" height="28" rx="14" fill="#ffffff" stroke="#4a90e2" stroke-width="1"/>
        <text x="1141" y="258" text-anchor="middle" font-size="11" font-weight="600" fill="#4a90e2">→ Explore city</text>
      </g>
    </g>

    <line x1="1064" y1="290" x2="1416" y2="290" stroke="#e0e4e8"/>

    <!-- Feed entry 2 - Seoul -->
    <g>
      <polygon points="1062,308 1066,316 1074,316 1067,321 1070,329 1062,325 1054,329 1057,321 1050,316 1058,316"
               fill="#f5a623"/>
      <text x="1082" y="316" font-size="13" font-weight="700" fill="#1a202c">Seoul, South Korea</text>
      <text x="1420" y="316" text-anchor="end" font-size="11" fill="#7a8493">Oct 28</text>
      <text x="1082" y="338" font-size="12" fill="#4a5568">Palace hopping and late-night karaoke</text>
      <text x="1082" y="354" font-size="12" fill="#4a5568">in Hongdae. 4 days, zero regrets.</text>
      <g>
        <rect x="1082" y="368" width="70" height="52" rx="4" fill="#d0d7de"/>
        <rect x="1158" y="368" width="70" height="52" rx="4" fill="#d0d7de"/>
        <rect x="1234" y="368" width="70" height="52" rx="4" fill="#7a8493" opacity="0.8"/>
        <text x="1269" y="398" text-anchor="middle" font-size="13" font-weight="600" fill="#ffffff">+12</text>
      </g>
      <g>
        <rect x="1082" y="434" width="320" height="42" rx="6" fill="#ffffff" stroke="#e0e4e8"/>
        <rect x="1094" y="444" width="20" height="22" rx="2" fill="#d0d7de"/>
        <text x="1122" y="455" font-size="12" font-weight="600" fill="#1a202c">A week in Seoul</text>
        <text x="1122" y="469" font-size="10" fill="#7a8493">Long read · 8 min</text>
      </g>
      <g>
        <rect x="1082" y="486" width="130" height="28" rx="14" fill="#ffffff" stroke="#4a90e2" stroke-width="1"/>
        <text x="1147" y="504" text-anchor="middle" font-size="11" font-weight="600" fill="#4a90e2">→ Explore city</text>
      </g>
    </g>

    <line x1="1064" y1="536" x2="1416" y2="536" stroke="#e0e4e8"/>

    <!-- Feed entry 3 - Kyoto -->
    <g>
      <polygon points="1062,554 1066,562 1074,562 1067,567 1070,575 1062,571 1054,575 1057,567 1050,562 1058,562"
               fill="#f5a623"/>
      <text x="1082" y="562" font-size="13" font-weight="700" fill="#1a202c">Kyoto, Japan</text>
      <text x="1420" y="562" text-anchor="end" font-size="11" fill="#7a8493">Oct 22</text>
      <text x="1082" y="584" font-size="12" fill="#4a5568">Temples, tea, and way too many</text>
      <text x="1082" y="600" font-size="12" fill="#4a5568">photos of bamboo.</text>
      <g>
        <rect x="1082" y="614" width="70" height="52" rx="4" fill="#d0d7de"/>
        <rect x="1158" y="614" width="70" height="52" rx="4" fill="#d0d7de"/>
        <rect x="1234" y="614" width="70" height="52" rx="4" fill="#d0d7de"/>
      </g>
      <g>
        <rect x="1082" y="680" width="130" height="28" rx="14" fill="#ffffff" stroke="#4a90e2" stroke-width="1"/>
        <text x="1147" y="698" text-anchor="middle" font-size="11" font-weight="600" fill="#4a90e2">→ Explore city</text>
      </g>
    </g>

    <line x1="1064" y1="730" x2="1416" y2="730" stroke="#e0e4e8"/>

    <!-- Feed entry 4 - Tokyo (partial) -->
    <g>
      <polygon points="1062,748 1066,756 1074,756 1067,761 1070,769 1062,765 1054,769 1057,761 1050,756 1058,756"
               fill="#f5a623"/>
      <text x="1082" y="756" font-size="13" font-weight="700" fill="#1a202c">Tokyo, Japan</text>
      <text x="1420" y="756" text-anchor="end" font-size="11" fill="#7a8493">Oct 15</text>
      <text x="1082" y="778" font-size="12" fill="#4a5568">First stop. Jet-lagged but thrilled.</text>
      <text x="1082" y="794" font-size="12" fill="#4a5568">Shibuya crossing lives up to the hype.</text>
      <g>
        <rect x="1082" y="810" width="70" height="52" rx="4" fill="#d0d7de"/>
        <rect x="1158" y="810" width="70" height="52" rx="4" fill="#d0d7de"/>
        <rect x="1234" y="810" width="70" height="52" rx="4" fill="#d0d7de"/>
      </g>
    </g>

    <defs>
      <linearGradient id="scrollFade" x1="0" y1="0" x2="0" y2="1">
        <stop offset="0%" stop-color="#fafbfc" stop-opacity="0"/>
        <stop offset="100%" stop-color="#fafbfc" stop-opacity="1"/>
      </linearGradient>
    </defs>
    <rect x="1040" y="870" width="400" height="30" fill="url(#scrollFade)"/>

    <rect x="0" y="895" width="1440" height="10" fill="#f0f2f4"/>
  </g>

  <!-- ============================================= -->
  <!-- PAGE 2: CITY DETAIL VIEW (y: 920 - 1820)       -->
  <!-- ============================================= -->
  <g id="page-2-city-detail" transform="translate(0, 920)">
    <rect x="0" y="0" width="1440" height="900" fill="#ffffff"/>

    <!-- City map canvas -->
    <rect x="0" y="0" width="1040" height="900" fill="url(#mapGridCity)"/>

    <!-- River -->
    <path d="M 60,200 Q 200,280 280,360 Q 360,440 320,560 Q 260,680 340,800 L 340,900 L 280,900 Q 200,780 260,660 Q 320,540 260,440 Q 180,340 40,260 L 40,200 Z"
          fill="#b8d4e8" opacity="0.7"/>

    <!-- Road network -->
    <g stroke="#d0d7de" stroke-width="6" fill="none">
      <line x1="100" y1="150" x2="980" y2="200"/>
      <line x1="150" y1="350" x2="950" y2="400"/>
      <line x1="200" y1="550" x2="900" y2="580"/>
      <line x1="250" y1="750" x2="850" y2="780"/>
      <line x1="400" y1="80" x2="450" y2="850"/>
      <line x1="600" y1="80" x2="650" y2="850"/>
      <line x1="800" y1="80" x2="820" y2="850"/>
    </g>
    <g stroke="#e0e4e8" stroke-width="2" fill="none">
      <line x1="120" y1="250" x2="970" y2="290"/>
      <line x1="180" y1="450" x2="920" y2="480"/>
      <line x1="220" y1="650" x2="880" y2="680"/>
      <line x1="300" y1="80" x2="340" y2="850"/>
      <line x1="500" y1="80" x2="540" y2="850"/>
      <line x1="700" y1="80" x2="730" y2="850"/>
      <line x1="900" y1="80" x2="920" y2="850"/>
    </g>

    <!-- Park -->
    <rect x="420" y="420" width="160" height="120" rx="8" fill="#c6e2b8" opacity="0.7"/>
    <text x="500" y="484" text-anchor="middle" font-size="11" fill="#5a7248" font-style="italic">Lumpini Park</text>

    <!-- Site pins -->
    <g>
      <g transform="translate(280, 300)">
        <circle r="14" fill="#e94b3c" stroke="#ffffff" stroke-width="2"/>
        <text text-anchor="middle" dy="4" font-size="12" font-weight="700" fill="#ffffff">1</text>
      </g>
      <text x="280" y="275" text-anchor="middle" font-size="11" font-weight="600" fill="#1a202c">Grand Palace</text>

      <g transform="translate(340, 420)">
        <circle r="14" fill="#e94b3c" stroke="#ffffff" stroke-width="2"/>
        <text text-anchor="middle" dy="4" font-size="12" font-weight="700" fill="#ffffff">2</text>
      </g>
      <text x="340" y="395" text-anchor="middle" font-size="11" font-weight="600" fill="#1a202c">Wat Pho</text>

      <g transform="translate(620, 220)">
        <circle r="14" fill="#e94b3c" stroke="#ffffff" stroke-width="2"/>
        <text text-anchor="middle" dy="4" font-size="12" font-weight="700" fill="#ffffff">3</text>
      </g>
      <text x="620" y="195" text-anchor="middle" font-size="11" font-weight="600" fill="#1a202c">Chatuchak Market</text>

      <circle cx="500" cy="480" r="20" fill="none" stroke="#e94b3c" stroke-width="1.5" opacity="0.5"/>
      <g transform="translate(500, 480)">
        <circle r="14" fill="#e94b3c" stroke="#ffffff" stroke-width="2"/>
        <text text-anchor="middle" dy="4" font-size="12" font-weight="700" fill="#ffffff">4</text>
      </g>
      <text x="500" y="515" text-anchor="middle" font-size="11" font-weight="700" fill="#e94b3c">Chinatown · Today</text>

      <g transform="translate(780, 350)">
        <circle r="14" fill="#ffffff" stroke="#9aa5b1" stroke-width="2" stroke-dasharray="3 2"/>
        <text text-anchor="middle" dy="4" font-size="12" font-weight="600" fill="#7a8493">5</text>
      </g>
      <text x="780" y="325" text-anchor="middle" font-size="11" fill="#7a8493">Jim Thompson House</text>

      <g transform="translate(700, 620)">
        <circle r="14" fill="#ffffff" stroke="#9aa5b1" stroke-width="2" stroke-dasharray="3 2"/>
        <text text-anchor="middle" dy="4" font-size="12" font-weight="600" fill="#7a8493">6</text>
      </g>
      <text x="700" y="650" text-anchor="middle" font-size="11" fill="#7a8493">Asiatique Riverfront</text>
    </g>

    <!-- Route connecting visited sites -->
    <path d="M 280,300 L 340,420 L 500,480 L 620,220"
          fill="none" stroke="#e94b3c" stroke-width="2" stroke-dasharray="5 3" opacity="0.7"/>

    <!-- Back button + city title -->
    <g>
      <rect x="20" y="20" width="340" height="48" rx="8" fill="#ffffff" stroke="#e0e4e8" filter="drop-shadow(0 2px 4px rgba(0,0,0,0.08))"/>
      <g stroke="#4a5568" stroke-width="2" fill="none" stroke-linecap="round" stroke-linejoin="round">
        <polyline points="44,38 36,44 44,50"/>
        <line x1="36" y1="44" x2="56" y2="44"/>
      </g>
      <text x="68" y="41" font-size="10" fill="#7a8493" font-weight="500">BACK TO TRIP</text>
      <text x="68" y="58" font-size="14" font-weight="700" fill="#1a202c">Bangkok · City view</text>
    </g>

    <!-- Zoom controls -->
    <g>
      <rect x="980" y="780" width="40" height="80" rx="8" fill="#ffffff" stroke="#e0e4e8" filter="drop-shadow(0 2px 4px rgba(0,0,0,0.08))"/>
      <line x1="988" y1="820" x2="1012" y2="820" stroke="#e0e4e8"/>
      <text x="1000" y="808" text-anchor="middle" font-size="18" fill="#4a5568" font-weight="300">+</text>
      <text x="1000" y="848" text-anchor="middle" font-size="22" fill="#4a5568" font-weight="300">-</text>
    </g>

    <!-- Legend -->
    <g>
      <rect x="20" y="820" width="190" height="60" rx="6" fill="#ffffff" stroke="#e0e4e8" filter="drop-shadow(0 2px 4px rgba(0,0,0,0.08))"/>
      <text x="32" y="838" font-size="11" font-weight="600" fill="#4a5568">Sites in Bangkok</text>
      <circle cx="36" cy="856" r="6" fill="#e94b3c"/>
      <text x="48" y="860" font-size="10" fill="#4a5568">Visited (4)</text>
      <circle cx="118" cy="856" r="6" fill="#ffffff" stroke="#9aa5b1" stroke-dasharray="2 1.5"/>
      <text x="130" y="860" font-size="10" fill="#4a5568">Planned (2)</text>
    </g>

    <!-- Scale -->
    <g transform="translate(860, 860)">
      <line x1="0" y1="0" x2="80" y2="0" stroke="#4a5568" stroke-width="2"/>
      <line x1="0" y1="-4" x2="0" y2="4" stroke="#4a5568" stroke-width="2"/>
      <line x1="80" y1="-4" x2="80" y2="4" stroke="#4a5568" stroke-width="2"/>
      <text x="40" y="18" text-anchor="middle" font-size="10" fill="#4a5568">2 km</text>
    </g>

    <!-- RIGHT SIDEBAR -->
    <rect x="1040" y="0" width="400" height="900" fill="#fafbfc" stroke="#e0e4e8"/>

    <g>
      <rect x="1040" y="0" width="400" height="100" fill="#ffffff" stroke="#e0e4e8"/>
      <text x="1064" y="28" font-size="11" font-weight="600" fill="#7a8493" letter-spacing="1">CITY VIEW</text>
      <text x="1064" y="54" font-size="20" font-weight="700" fill="#1a202c">Bangkok</text>
      <text x="1064" y="76" font-size="12" fill="#7a8493">Nov 1 – Nov 6 · 4 of 6 sites</text>
      <rect x="1064" y="84" width="352" height="6" rx="3" fill="#e0e4e8"/>
      <rect x="1064" y="84" width="234" height="6" rx="3" fill="#e94b3c"/>
    </g>

    <!-- Site entries -->
    <g>
      <circle cx="1062" cy="128" r="11" fill="#e94b3c"/>
      <text x="1062" y="132" text-anchor="middle" font-size="11" font-weight="700" fill="#ffffff">1</text>
      <text x="1082" y="124" font-size="13" font-weight="700" fill="#1a202c">Grand Palace</text>
      <text x="1420" y="124" text-anchor="end" font-size="11" fill="#7a8493">Nov 1</text>
      <text x="1082" y="144" font-size="12" fill="#4a5568">Arrived early to beat the heat.</text>
      <text x="1082" y="160" font-size="12" fill="#4a5568">Dress code strictly enforced.</text>
      <g>
        <rect x="1082" y="174" width="58" height="44" rx="4" fill="#d0d7de"/>
        <rect x="1146" y="174" width="58" height="44" rx="4" fill="#d0d7de"/>
        <rect x="1210" y="174" width="58" height="44" rx="4" fill="#d0d7de"/>
      </g>
    </g>

    <line x1="1064" y1="238" x2="1416" y2="238" stroke="#e0e4e8"/>

    <g>
      <circle cx="1062" cy="266" r="11" fill="#e94b3c"/>
      <text x="1062" y="270" text-anchor="middle" font-size="11" font-weight="700" fill="#ffffff">2</text>
      <text x="1082" y="262" font-size="13" font-weight="700" fill="#1a202c">Wat Pho (Reclining Buddha)</text>
      <text x="1420" y="262" text-anchor="end" font-size="11" fill="#7a8493">Nov 1</text>
      <text x="1082" y="282" font-size="12" fill="#4a5568">46m of pure gold. Got a traditional</text>
      <text x="1082" y="298" font-size="12" fill="#4a5568">Thai massage at the adjacent school.</text>
      <g>
        <rect x="1082" y="312" width="58" height="44" rx="4" fill="#d0d7de"/>
        <rect x="1146" y="312" width="58" height="44" rx="4" fill="#d0d7de"/>
      </g>
    </g>

    <line x1="1064" y1="376" x2="1416" y2="376" stroke="#e0e4e8"/>

    <g>
      <circle cx="1062" cy="404" r="11" fill="#e94b3c"/>
      <text x="1062" y="408" text-anchor="middle" font-size="11" font-weight="700" fill="#ffffff">3</text>
      <text x="1082" y="400" font-size="13" font-weight="700" fill="#1a202c">Chatuchak Weekend Market</text>
      <text x="1420" y="400" text-anchor="end" font-size="11" fill="#7a8493">Nov 2</text>
      <text x="1082" y="420" font-size="12" fill="#4a5568">8,000+ stalls. Got completely lost.</text>
      <g>
        <rect x="1082" y="434" width="58" height="44" rx="4" fill="#d0d7de"/>
        <rect x="1146" y="434" width="58" height="44" rx="4" fill="#d0d7de"/>
        <rect x="1210" y="434" width="58" height="44" rx="4" fill="#d0d7de"/>
        <rect x="1274" y="434" width="58" height="44" rx="4" fill="#7a8493" opacity="0.8"/>
        <text x="1303" y="462" text-anchor="middle" font-size="11" font-weight="600" fill="#ffffff">+8</text>
      </g>
    </g>

    <line x1="1064" y1="498" x2="1416" y2="498" stroke="#e0e4e8"/>

    <!-- Current highlighted entry -->
    <g>
      <rect x="1052" y="516" width="376" height="156" rx="8" fill="#fef5f4" stroke="#e94b3c" stroke-width="1.5"/>
      <circle cx="1074" cy="544" r="11" fill="#e94b3c"/>
      <text x="1074" y="548" text-anchor="middle" font-size="11" font-weight="700" fill="#ffffff">4</text>
      <text x="1094" y="540" font-size="13" font-weight="700" fill="#1a202c">Chinatown (Yaowarat)</text>
      <text x="1408" y="540" text-anchor="end" font-size="11" fill="#e94b3c" font-weight="600">TODAY</text>
      <text x="1094" y="560" font-size="12" fill="#4a5568">Street food tour. Mango sticky rice,</text>
      <text x="1094" y="576" font-size="12" fill="#4a5568">grilled pork skewers, guay teow.</text>
      <g>
        <rect x="1094" y="592" width="58" height="44" rx="4" fill="#d0d7de"/>
        <rect x="1158" y="592" width="58" height="44" rx="4" fill="#d0d7de"/>
        <rect x="1222" y="592" width="58" height="44" rx="4" fill="#d0d7de"/>
      </g>
      <text x="1094" y="656" font-size="11" font-weight="600" fill="#4a90e2">Read full entry →</text>
    </g>

    <g>
      <text x="1064" y="700" font-size="10" font-weight="700" fill="#7a8493" letter-spacing="1">UPCOMING</text>
      <line x1="1140" y1="696" x2="1416" y2="696" stroke="#e0e4e8"/>
    </g>

    <g opacity="0.7">
      <circle cx="1062" cy="726" r="11" fill="#ffffff" stroke="#9aa5b1" stroke-width="1.5" stroke-dasharray="2 1.5"/>
      <text x="1062" y="730" text-anchor="middle" font-size="11" font-weight="600" fill="#7a8493">5</text>
      <text x="1082" y="722" font-size="13" font-weight="600" fill="#4a5568">Jim Thompson House</text>
      <text x="1420" y="722" text-anchor="end" font-size="11" fill="#7a8493">Nov 4</text>
      <text x="1082" y="742" font-size="12" fill="#7a8493">Planned visit</text>
    </g>

    <line x1="1064" y1="764" x2="1416" y2="764" stroke="#e0e4e8"/>

    <g opacity="0.7">
      <circle cx="1062" cy="792" r="11" fill="#ffffff" stroke="#9aa5b1" stroke-width="1.5" stroke-dasharray="2 1.5"/>
      <text x="1062" y="796" text-anchor="middle" font-size="11" font-weight="600" fill="#7a8493">6</text>
      <text x="1082" y="788" font-size="13" font-weight="600" fill="#4a5568">Asiatique Riverfront</text>
      <text x="1420" y="788" text-anchor="end" font-size="11" fill="#7a8493">Nov 5</text>
      <text x="1082" y="808" font-size="12" fill="#7a8493">Planned visit</text>
    </g>

    <rect x="0" y="895" width="1440" height="10" fill="#f0f2f4"/>
  </g>

  <!-- ============================================= -->
  <!-- PAGE 3: FULL POST VIEW (y: 1840 - 2820)        -->
  <!-- ============================================= -->
  <g id="page-3-full-post" transform="translate(0, 1840)">
    <rect x="0" y="0" width="1440" height="980" fill="#ffffff"/>

    <!-- Top bar -->
    <rect x="0" y="0" width="1440" height="64" fill="#ffffff" stroke="#e0e4e8" stroke-width="1"/>
    <g>
      <g stroke="#4a5568" stroke-width="2" fill="none" stroke-linecap="round" stroke-linejoin="round">
        <polyline points="44,28 36,34 44,40"/>
        <line x1="36" y1="34" x2="56" y2="34"/>
      </g>
      <text x="68" y="38" font-size="13" font-weight="500" fill="#4a5568">Back to map</text>
    </g>
    <text x="720" y="40" text-anchor="middle" font-size="14" font-weight="600" fill="#1a202c">Asia Adventure 2026</text>
    <text x="1420" y="40" text-anchor="end" font-size="13" fill="#7a8493">Day 18 of 60</text>

    <!-- Main article column -->
    <g transform="translate(280, 100)">
      <g>
        <text x="0" y="0" font-size="11" fill="#7a8493">
          <tspan fill="#4a90e2">Trip</tspan> / <tspan fill="#4a90e2">Seoul</tspan> / <tspan>A week in Seoul</tspan>
        </text>
      </g>

      <text x="0" y="48" font-size="34" font-weight="700" fill="#1a202c">A week in Seoul</text>
      <text x="0" y="82" font-size="16" fill="#7a8493">From palaces to pojangmacha — our 7 days in the capital.</text>

      <g transform="translate(0, 110)">
        <circle cx="12" cy="12" r="12" fill="#d0d7de"/>
        <text x="32" y="10" font-size="13" font-weight="600" fill="#1a202c">Alex &amp; Jordan</text>
        <text x="32" y="28" font-size="11" fill="#7a8493">Oct 28, 2026 · 8 min read · Seoul, South Korea</text>
      </g>

      <rect x="0" y="160" width="880" height="360" rx="6" fill="#d0d7de"/>
      <text x="440" y="544" text-anchor="middle" font-size="11" fill="#7a8493" font-style="italic">Gyeongbokgung Palace at golden hour</text>

      <g fill="#2d3e50" font-size="14">
        <text x="0" y="590">Seoul hit us like a gentle wave — unhurried, layered, and somehow</text>
        <text x="0" y="612">entirely familiar after only three days. We landed at Incheon on a</text>
        <text x="0" y="634">Tuesday morning with no real plan beyond "eat and walk a lot."</text>

        <text x="0" y="672" font-size="20" font-weight="700" fill="#1a202c">Day 1–2: Palace hopping</text>

        <text x="0" y="704">Gyeongbokgung opens at 9am and you should be there at 9am. We caught</text>
        <text x="0" y="726">the changing of the guard ceremony and spent nearly four hours just</text>
        <text x="0" y="748">wandering. Rented hanbok from a shop across the street — it's touristy</text>
        <text x="0" y="770">but you get free palace entry and the photos are worth it.</text>

        <rect x="0" y="800" width="420" height="200" rx="6" fill="#d0d7de"/>
        <rect x="460" y="800" width="420" height="200" rx="6" fill="#d0d7de"/>
      </g>
    </g>

    <!-- Right sidebar -->
    <g transform="translate(1180, 100)">
      <text x="0" y="0" font-size="11" font-weight="700" fill="#7a8493" letter-spacing="1">MORE FROM SEOUL</text>

      <g transform="translate(0, 24)">
        <rect x="0" y="0" width="220" height="80" rx="6" fill="#fafbfc" stroke="#e0e4e8"/>
        <rect x="8" y="8" width="64" height="64" rx="4" fill="#d0d7de"/>
        <text x="84" y="28" font-size="12" font-weight="600" fill="#1a202c">Late night in</text>
        <text x="84" y="44" font-size="12" font-weight="600" fill="#1a202c">Hongdae</text>
        <text x="84" y="62" font-size="10" fill="#7a8493">3 min · Oct 29</text>
      </g>

      <g transform="translate(0, 120)">
        <rect x="0" y="0" width="220" height="80" rx="6" fill="#fafbfc" stroke="#e0e4e8"/>
        <rect x="8" y="8" width="64" height="64" rx="4" fill="#d0d7de"/>
        <text x="84" y="28" font-size="12" font-weight="600" fill="#1a202c">DMZ day trip:</text>
        <text x="84" y="44" font-size="12" font-weight="600" fill="#1a202c">worth the 5am start</text>
        <text x="84" y="62" font-size="10" fill="#7a8493">6 min · Oct 30</text>
      </g>

      <g transform="translate(0, 216)">
        <rect x="0" y="0" width="220" height="80" rx="6" fill="#fafbfc" stroke="#e0e4e8"/>
        <rect x="8" y="8" width="64" height="64" rx="4" fill="#d0d7de"/>
        <text x="84" y="28" font-size="12" font-weight="600" fill="#1a202c">Every banchan</text>
        <text x="84" y="44" font-size="12" font-weight="600" fill="#1a202c">we tried, ranked</text>
        <text x="84" y="62" font-size="10" fill="#7a8493">4 min · Oct 31</text>
      </g>

      <g transform="translate(0, 330)">
        <text x="0" y="0" font-size="11" font-weight="700" fill="#7a8493" letter-spacing="1">ON THE MAP</text>
        <rect x="0" y="16" width="220" height="140" rx="6" fill="url(#mapGridCity)" stroke="#e0e4e8"/>
        <circle cx="110" cy="86" r="8" fill="#f5a623" stroke="#ffffff" stroke-width="2"/>
        <text x="110" y="170" text-anchor="middle" font-size="11" fill="#4a5568">Seoul, South Korea</text>
      </g>
    </g>

    <!-- Prev/Next navigation -->
    <g transform="translate(280, 860)">
      <rect x="0" y="0" width="420" height="72" rx="8" fill="#fafbfc" stroke="#e0e4e8"/>
      <text x="20" y="24" font-size="10" font-weight="700" fill="#7a8493" letter-spacing="1">← PREVIOUS</text>
      <text x="20" y="48" font-size="14" font-weight="600" fill="#1a202c">Tokyo: the arrival</text>
      <text x="20" y="64" font-size="11" fill="#7a8493">Oct 15 · 5 min read</text>

      <rect x="460" y="0" width="420" height="72" rx="8" fill="#fafbfc" stroke="#e0e4e8"/>
      <text x="860" y="24" text-anchor="end" font-size="10" font-weight="700" fill="#7a8493" letter-spacing="1">NEXT →</text>
      <text x="860" y="48" text-anchor="end" font-size="14" font-weight="600" fill="#1a202c">Bangkok first impressions</text>
      <text x="860" y="64" text-anchor="end" font-size="11" fill="#7a8493">Nov 1 · 4 min read</text>
    </g>
  </g>
</svg>
